<svg width="436" height="435" viewBox="0 0 436 435" fill="none" xmlns="http://www.w3.org/2000/svg">
<path fill-rule="evenodd" clip-rule="evenodd" d="M302.474 17.1646C314.5 22.2838 324.681 27.8562 335.812 34.779C420.998 87.7566 460.804 203.658 419.704 299.392C419.704 299.392 415.823 308.249 413.136 313.424C410.449 318.598 412.118 315.238 406.866 325.166C401.614 335.095 391.747 348.093 391.747 348.093C391.747 348.093 398.209 338.908 398.209 294.516C398.209 250.123 372.235 193.095 300.104 161.964C295.697 160.062 291.311 158.287 287.015 156.633C272.838 151.177 259.695 147.265 250.057 144.285L248.67 143.857C248.225 143.719 247.786 143.584 247.358 143.451C208.332 136.385 181.463 110.01 181.463 74.1873C182.763 52.5548 189.091 38.7842 210.231 22.7831C229.233 8.40106 258.557 5.67276 264.296 5.26789C264.966 5.22066 265.619 5.27421 266.274 5.41945C268.38 5.88621 273.588 7.09489 279.188 8.80529C285.666 10.7843 293.851 13.4942 302.474 17.1646Z" fill="#13928A"/>
<path fill-rule="evenodd" clip-rule="evenodd" d="M139.074 14.8628C11.2225 65.2628 -36.8699 212.104 30.3034 327.841C42.3411 346.344 54.2873 366.95 80.6086 378.102C86.0328 379.987 99.4367 382.574 107.528 376.205C127.296 360.645 118.275 313.013 162.46 284.053C186.145 269.922 198.599 266.669 225.056 267.534C316.411 270.519 376.936 327.464 391.747 348.093C391.747 348.093 383.121 263.971 282.278 234.495C220.951 216.569 180.514 217.809 152.907 194.091C122.941 168.348 118.908 143.607 121.957 106.617C127.737 69.8922 148.849 47.2745 168.531 33.3729C213.578 1.55521 265.459 5.25448 265.459 5.25448C265.459 5.25448 241.676 -0.612598 214.58 0.0525674C193.356 0.359063 167.324 3.72633 139.074 14.8628Z" fill="#2B3351"/>
</svg>
