<svg width="2170" height="320" viewBox="0 0 2170 320" fill="none" xmlns="http://www.w3.org/2000/svg">
<path fill-rule="evenodd" clip-rule="evenodd" d="M1442.61 88.5108C1449.27 91.3474 1454.92 94.4353 1461.08 98.2713C1508.29 127.628 1530.35 191.851 1507.57 244.9C1507.57 244.9 1505.42 249.808 1503.93 252.676C1502.44 255.543 1503.37 253.681 1500.46 259.183C1497.55 264.685 1492.08 271.887 1492.08 271.887C1492.08 271.887 1495.66 266.797 1495.66 242.198C1495.66 217.599 1481.27 185.998 1441.3 168.748C1438.86 167.694 1436.42 166.71 1434.04 165.794C1426.19 162.771 1418.91 160.603 1413.57 158.952L1412.8 158.714C1412.55 158.638 1412.31 158.563 1412.07 158.49C1390.44 154.574 1375.56 139.959 1375.56 120.109C1376.28 108.121 1379.78 100.491 1391.5 91.6241C1401.6 83.976 1416.97 82.2752 1421.01 81.9522C1421.68 81.8987 1422.34 81.9527 1422.99 82.1016C1424.35 82.4105 1426.94 83.0342 1429.71 83.8786C1433.3 84.9753 1437.83 86.4769 1442.61 88.5108Z" fill="#13928A"/>
<path fill-rule="evenodd" clip-rule="evenodd" d="M1352.07 87.2359C1281.22 115.164 1254.57 196.532 1291.79 260.665C1298.46 270.919 1305.08 282.337 1319.67 288.516C1322.68 289.561 1330.1 290.995 1334.59 287.465C1345.54 278.843 1340.54 252.449 1365.03 236.402C1378.15 228.571 1385.05 226.768 1399.71 227.248C1450.33 228.902 1483.87 260.457 1492.08 271.887C1492.08 271.887 1487.3 225.274 1431.42 208.94C1397.44 199.007 1375.03 199.694 1359.73 186.551C1343.13 172.286 1340.89 158.576 1342.58 138.079C1345.78 117.729 1357.48 105.196 1368.39 97.4928C1393.35 79.8618 1422.1 81.9116 1422.1 81.9116C1422.1 81.9116 1408.92 78.6605 1393.91 79.0291C1382.15 79.199 1367.72 81.0649 1352.07 87.2359Z" fill="#2B3351"/>
<path d="M111.792 53.7157C135.75 53.7157 160.237 63.4252 185.254 82.8646L214.81 36.9429C182.608 12.9847 147.861 1.01575 110.591 1.01575C82.9073 1.01575 59.0101 8.54722 38.9194 23.5695C18.8083 38.6121 8.77315 59.4356 8.77315 86.0604C8.77315 95.9124 10.2998 104.889 13.3735 113.011C16.4268 121.133 20.2129 127.789 24.7521 132.979C29.271 138.17 35.1333 142.954 42.3188 147.35C49.5042 151.747 56.425 155.126 63.0812 157.528C69.7374 159.93 77.4521 162.311 86.2456 164.713C90.4999 165.772 95.9551 167.115 102.611 168.703C109.267 170.311 114.662 171.634 118.773 172.693C122.906 173.751 127.628 175.095 132.941 176.682C138.253 178.29 142.528 179.939 145.724 181.669C148.92 183.4 152.034 185.394 155.108 187.654C158.161 189.913 160.359 192.58 161.703 195.633C163.026 198.686 163.698 202.086 163.698 205.811C163.698 227.103 148.92 237.748 119.384 237.748C88.2404 237.748 59.6208 225.779 33.5456 201.821L0 245.768C15.9789 260.139 34.543 271.131 55.6922 278.703C76.8414 286.276 98.4792 290.082 120.585 290.082C149.062 290.082 173.55 282.489 194.048 267.325C214.545 252.16 224.784 230.868 224.784 203.45C224.784 191.745 222.789 181.161 218.8 171.716C214.81 162.271 210.006 154.678 204.429 148.958C198.851 143.239 191.381 138.048 182.079 133.387C172.756 128.725 164.451 125.326 157.123 123.209C149.795 121.072 140.818 118.69 130.172 116.023C105.156 110.161 89.5839 105.52 83.4569 102.06C74.3988 97.0116 69.8799 90.62 69.8799 82.8849C69.8799 72.5037 74.0731 65.0537 82.4595 60.5144C90.8459 55.9955 100.616 53.7361 111.812 53.7361L111.792 53.7157Z" fill="#2B3351"/>
<path d="M426.544 113.808C406.31 93.9817 381.294 84.0687 351.473 84.0687C321.652 84.0687 296.636 93.9817 276.403 113.808C256.169 133.634 246.053 158.06 246.053 187.087C246.053 216.114 256.169 240.52 276.403 260.346C296.636 280.172 321.652 290.085 351.473 290.085C381.294 290.085 406.31 280.172 426.544 260.346C446.777 240.52 456.893 216.093 456.893 187.087C456.893 158.081 446.777 133.654 426.544 113.808ZM387.217 227.411C378.037 237.792 366.109 242.983 351.473 242.983C336.838 242.983 324.93 237.792 315.729 227.411C306.549 217.03 301.949 203.595 301.949 187.087C301.949 170.579 306.549 157.144 315.729 146.763C324.909 136.382 336.817 131.191 351.473 131.191C366.129 131.191 378.016 136.382 387.217 146.763C396.418 157.144 400.998 170.599 400.998 187.087C400.998 203.575 396.397 217.03 387.217 227.411Z" fill="#2B3351"/>
<path d="M980.457 113.808C960.223 93.9817 935.207 84.0687 905.386 84.0687C875.566 84.0687 850.549 93.9817 830.316 113.808C810.082 133.634 799.966 158.06 799.966 187.087C799.966 216.114 810.082 240.52 830.316 260.346C850.549 280.172 875.566 290.085 905.386 290.085C935.207 290.085 960.223 280.172 980.457 260.346C1000.69 240.52 1010.81 216.093 1010.81 187.087C1010.81 158.081 1000.69 133.654 980.457 113.808ZM941.13 227.411C931.95 237.792 920.022 242.983 905.386 242.983C890.751 242.983 878.843 237.792 869.642 227.411C860.462 217.03 855.862 203.595 855.862 187.087C855.862 170.579 860.462 157.144 869.642 146.763C878.822 136.382 890.73 131.191 905.386 131.191C920.042 131.191 931.93 136.382 941.13 146.763C950.331 157.144 954.911 170.599 954.911 187.087C954.911 203.575 950.31 217.03 941.13 227.411Z" fill="#2B3351"/>
<path d="M501.07 88.8491H469.927V134.364H501.07V285.298H556.579V134.384H602.501V88.8694H556.579V71.3027C556.579 63.3235 559.246 57.2576 564.559 53.1254C569.872 48.9933 576.406 46.9374 584.12 46.9374C592.364 46.9374 600.099 49.3393 607.285 54.1228L624.444 15.3866C608.73 5.79925 591.57 1.01575 572.945 1.01575C552.712 1.01575 535.674 6.81702 521.833 18.3789C507.991 29.961 501.07 46.4082 501.07 67.6999V88.8694V88.8491Z" fill="#2B3351"/>
<path d="M664.646 88.8499H633.909V133.163H664.646V221.811C664.646 267.326 686.609 290.083 730.536 290.083C737.192 290.083 744.703 289.085 753.09 287.091C761.476 285.096 767.786 282.633 772.061 279.702L759.278 236.976C755.288 240.965 749.955 242.96 743.299 242.96C727.869 242.96 720.134 235.103 720.134 219.409V133.163H764.448V88.8499H720.134V36.1499H664.625V88.8499H664.646Z" fill="#2B3351"/>
<path d="M1568.76 88.8499H1538.02V133.163H1568.76V221.811C1568.76 267.326 1590.72 290.083 1634.65 290.083C1641.3 290.083 1648.81 289.085 1657.2 287.091C1665.59 285.096 1671.9 282.633 1676.17 279.702L1663.39 236.976C1659.4 240.965 1654.07 242.96 1647.41 242.96C1631.98 242.96 1624.25 235.103 1624.25 219.409V133.163H1668.56V88.8499H1624.25V36.1499H1568.74V88.8499H1568.76Z" fill="#2B3351"/>
<path d="M1711.04 34.5609C1711.04 43.619 1714.24 51.3337 1720.63 57.7253C1727.02 64.1169 1734.74 67.3126 1743.79 67.3126C1753.38 67.3126 1761.36 64.1779 1767.75 57.9288C1774.14 51.6797 1777.34 43.904 1777.34 34.5609C1777.34 25.2178 1774.14 17.3403 1767.75 10.8062C1761.36 4.2925 1753.38 1.03564 1743.79 1.03564C1734.74 1.03564 1727.02 4.2925 1720.63 10.8062C1714.24 17.3403 1711.04 25.2381 1711.04 34.5609Z" fill="#13928A"/>
<path d="M1771.74 88.8521H1716.23V285.301H1771.74V88.8521Z" fill="#2B3351"/>
<path d="M1906.59 290.104C1940.4 290.104 1966.74 278.4 1985.65 254.971L1949.71 222.626C1939.85 236.203 1925.75 243.002 1907.39 243.002C1892.47 243.002 1880.3 237.811 1870.85 227.43C1861.41 217.049 1856.68 203.614 1856.68 187.106C1856.68 170.598 1861.28 157.164 1870.46 146.782C1879.64 136.401 1891.69 131.211 1906.59 131.211C1924.43 131.211 1938.14 137.337 1947.73 149.571L1982.07 115.232C1962.1 94.4691 1936.82 84.0879 1906.21 84.0879C1875.59 84.0879 1851.37 93.9399 1831.14 113.623C1810.9 133.327 1800.79 157.815 1800.79 187.106C1800.79 216.398 1811.03 241.211 1831.52 260.772C1852.02 280.334 1877.04 290.125 1906.59 290.125V290.104Z" fill="#2B3351"/>
<path d="M2082.44 125.594C2101.33 125.594 2119.18 132.515 2135.94 146.356L2160.69 110.816C2137.52 92.9845 2111.71 84.0688 2083.24 84.0688C2061.68 84.0688 2042.97 89.463 2027.14 100.231C2011.3 111.019 2003.38 126.774 2003.38 147.557C2003.38 159.526 2006.23 169.643 2011.97 177.907C2017.69 186.171 2024.88 192.074 2033.53 195.677C2042.18 199.26 2051.56 202.394 2061.68 205.061C2071.8 207.728 2081.18 209.722 2089.83 211.045C2098.48 212.389 2105.67 214.628 2111.39 217.844C2117.11 221.04 2119.98 225.172 2119.98 230.22C2119.98 242.474 2109.72 248.581 2089.24 248.581C2064.75 248.581 2042.53 239.4 2022.56 221.04L1996.6 256.173C2022.94 278.808 2053.82 290.106 2089.24 290.106C2111.06 290.106 2129.89 284.711 2145.75 273.943C2161.58 263.155 2169.5 247.258 2169.5 226.231C2169.5 211.86 2165.51 200.074 2157.53 190.894C2149.55 181.713 2139.82 175.464 2128.39 172.126C2116.95 168.808 2105.49 166.142 2094.05 164.147C2082.59 162.152 2072.88 159.628 2064.9 156.554C2056.92 153.501 2052.93 149.165 2052.93 143.568C2052.93 131.599 2062.78 125.594 2082.48 125.594H2082.44Z" fill="#2B3351"/>
<path d="M1225.35 109.736C1206.68 89.991 1182.64 80.0983 1153.21 80.0983C1133.14 80.0983 1116.24 86.327 1102.48 98.7234V123.577H1094.46V72.4854H1094.75V0H1037.94V286.094H1094.75V280.456H1094.46V242.249H1102.48V271.927C1107.21 276.303 1113.01 280.09 1119.91 283.245C1131.21 288.415 1142.73 291 1154.45 291C1183.34 291 1207.03 281.128 1225.57 261.363C1244.1 241.618 1253.36 216.337 1253.36 185.539C1253.36 154.741 1244.01 129.48 1225.35 109.715V109.736ZM1174.46 218.861C1167.38 227.166 1157.83 231.603 1145.86 232.132H1144.64C1133.2 232.132 1123.8 227.776 1116.45 219.044C1109.1 210.332 1105.42 199.157 1105.42 185.539C1105.42 182.811 1105.56 180.369 1105.82 178.191C1107.19 166.486 1111.34 157.082 1118.28 149.999C1125.22 142.915 1133.75 139.373 1143.83 139.373C1158.54 139.373 1169.7 145.093 1177.33 156.533C1182.5 164.98 1185.09 174.649 1185.09 185.559C1185.09 199.462 1181.54 210.556 1174.46 218.861Z" fill="#2B3351"/>
</svg>
